<?xml version="1.0" standalone="no"?>
<!DOCTYPE svg PUBLIC "-//W3C//DTD SVG 20010904//EN"
 "http://www.w3.org/TR/2001/REC-SVG-20010904/DTD/svg10.dtd">
<svg version="1.0" xmlns="http://www.w3.org/2000/svg"
 width="260.000000pt" height="260.000000pt" viewBox="0 0 260.000000 260.000000"
 preserveAspectRatio="xMidYMid meet">
<metadata>
Created by potrace 1.11, written by Peter Selinger 2001-2013
</metadata>
<g transform="translate(0.000000,260.000000) scale(0.100000,-0.100000)"
fill="#000000" stroke="none">
<path d="M0 1300 l0 -1300 727 0 726 0 36 41 c91 102 152 159 171 159 6 0 10
3 10 8 0 6 36 51 73 92 24 26 50 70 41 70 -5 0 2 7 14 16 12 8 22 21 22 29 0
7 7 21 16 29 15 15 12 36 -6 36 -5 0 -23 -27 -41 -60 -22 -39 -37 -56 -44 -50
-7 6 -15 2 -24 -12 -11 -17 -10 -22 1 -30 11 -8 10 -9 -1 -6 -24 7 -23 24 4
56 17 20 22 33 15 37 -14 8 -39 -23 -40 -47 0 -10 -4 -18 -9 -18 -4 0 -16 -20
-25 -44 -19 -51 -48 -80 -80 -81 -12 -1 -27 -5 -34 -9 -7 -4 -12 -4 -12 0 0 3
-9 -4 -20 -17 -17 -21 -19 -21 -14 -4 6 16 5 18 -7 8 -16 -16 -43 -17 -34 -3
4 7 -2 9 -19 4 -16 -4 -26 -2 -26 5 0 6 -7 8 -15 5 -9 -4 -15 0 -15 7 -1 10
-5 8 -14 -4 -17 -22 -26 -23 -37 -5 -7 10 -9 10 -9 -2 0 -12 -2 -12 -9 -2 -5
8 -20 15 -35 15 -14 1 -26 6 -26 10 0 5 -7 15 -16 24 -8 9 -13 22 -10 29 3 8
0 11 -9 8 -16 -6 -62 32 -52 43 4 3 7 1 7 -5 0 -7 5 -12 10 -12 6 0 8 10 5 23
-3 12 -2 34 4 47 5 14 10 19 10 12 1 -7 6 -10 11 -7 7 4 6 13 -1 27 -7 12 -7
18 -1 14 6 -3 13 0 15 6 4 10 8 9 16 -2 9 -12 11 -10 11 12 0 29 -25 49 -49
40 -10 -3 -12 0 -8 11 4 11 2 14 -7 11 -7 -3 -21 2 -30 12 -16 15 -13 18 41
46 73 38 71 36 39 47 -15 6 -26 18 -26 29 0 15 9 18 58 19 63 2 102 11 102 24
0 5 -15 9 -32 9 -18 0 -40 4 -48 10 -12 7 -12 12 4 29 10 11 34 25 52 31 23 8
34 18 34 30 0 11 15 36 33 57 32 38 12 29 -31 -14 -13 -13 -31 -23 -40 -23
-13 0 -14 2 -4 9 11 6 9 9 -7 14 -11 2 -21 1 -23 -4 -4 -12 -71 12 -92 34 -11
11 -13 17 -5 17 7 0 10 2 7 5 -3 4 -2 24 4 47 6 27 5 52 -3 75 -8 26 -8 38 0
46 12 12 15 79 4 90 -13 14 -22 128 -12 149 6 10 5 19 -2 24 -7 4 -9 21 -5 43
l6 37 -35 -2 c-21 -2 -41 3 -50 12 -15 16 -29 15 -115 -6 -24 -6 -58 -10 -75
-9 -16 1 -38 -2 -47 -6 -10 -4 -25 -5 -33 -2 -8 4 -17 2 -21 -4 -3 -5 -14 -7
-24 -4 -9 3 -30 1 -46 -5 -27 -11 -27 -10 -11 8 12 13 14 21 6 29 -8 8 -8 13
0 17 6 4 11 22 11 40 0 27 -4 32 -21 32 -16 -1 -22 6 -25 28 -2 16 2 38 8 49
7 14 7 22 -1 26 -9 6 -17 40 -26 116 -1 11 -7 31 -12 45 -7 18 -7 27 1 32 8 6
7 8 -1 8 -9 0 -11 14 -7 48 3 35 2 43 -6 32 -8 -11 -9 -8 -4 15 9 42 15 49 25
34 6 -9 9 0 9 26 1 38 1 39 17 20 15 -19 15 -19 9 8 -5 21 -3 27 9 27 9 0 14
4 10 9 -3 6 1 25 10 43 13 29 15 30 12 7 -6 -43 47 -25 66 24 4 10 17 15 37
15 17 -1 27 -4 21 -7 -6 -4 -4 -13 3 -23 12 -17 14 -17 30 0 9 10 13 22 9 25
-3 4 -1 7 5 7 7 0 12 -7 12 -15 0 -8 -4 -15 -10 -15 -14 0 -13 -27 1 -36 6 -3
35 -8 64 -9 29 -2 58 -6 64 -9 14 -9 14 0 0 26 -18 34 6 45 25 12 12 -21 15
-23 11 -7 -3 12 -1 24 5 28 14 9 2 27 -13 19 -9 -5 -9 -4 0 6 13 14 34 5 32
-13 -3 -27 2 -36 16 -31 8 4 15 13 15 21 0 13 3 13 15 3 12 -10 15 -10 15 3 0
8 -7 17 -15 21 -8 3 -15 12 -15 21 0 8 -3 14 -7 14 -22 -4 -30 3 -29 24 1 12
-3 25 -8 29 -6 4 -5 12 2 21 10 12 18 8 50 -22 22 -20 38 -38 36 -40 -2 -2
-12 3 -22 12 -14 13 -21 14 -30 5 -7 -7 -12 -17 -12 -22 0 -6 5 -4 10 4 8 12
10 12 10 1 0 -8 3 -11 7 -8 3 4 15 0 25 -10 10 -9 18 -13 18 -8 0 4 6 3 13 -3
8 -7 16 -6 24 3 10 11 9 17 -6 27 -10 7 -19 18 -21 23 -1 6 -6 9 -11 8 -4 -2
-6 4 -2 12 4 12 13 8 39 -19 19 -20 45 -40 57 -46 21 -11 21 -11 3 4 -11 9
-16 16 -10 17 5 0 -1 4 -13 9 -17 7 -22 16 -19 32 2 13 -1 30 -7 38 -6 8 1 4
16 -9 14 -13 29 -31 32 -40 2 -9 13 -21 23 -27 15 -10 18 -8 17 12 0 21 -38
68 -47 59 -2 -2 -4 5 -4 15 0 22 12 27 18 8 3 -8 9 -7 18 4 13 13 16 13 26 -6
6 -12 7 -26 3 -32 -5 -6 -2 -19 7 -30 8 -10 13 -14 10 -8 -3 6 -1 24 4 40 l10
29 -5 -32 c-4 -27 1 -36 24 -52 21 -15 28 -17 28 -6 0 8 -4 12 -8 9 -4 -2 -10
0 -14 6 -3 5 -1 10 6 10 7 0 4 7 -7 16 -18 15 -18 15 0 10 13 -5 17 -2 12 9
-12 32 4 13 19 -21 9 -22 19 -33 26 -28 6 3 7 9 3 13 -12 8 -16 31 -6 31 4 0
13 -5 19 -11 9 -9 11 -7 7 9 -5 17 -2 20 24 18 25 -2 28 1 24 19 -4 16 -1 15
18 -8 28 -36 35 -30 14 13 -9 18 -18 48 -19 67 l-2 35 24 -29 c14 -15 28 -28
33 -28 5 0 25 -19 45 -43 20 -23 44 -42 53 -41 11 0 8 4 -8 11 -15 6 -20 12
-12 15 6 3 9 10 5 16 -4 7 1 6 10 -2 16 -12 17 -12 12 5 -4 10 6 -3 20 -29 14
-26 23 -52 20 -57 -3 -5 0 -12 6 -16 8 -4 9 -3 5 4 -7 11 7 17 29 12 6 -1 6 2
2 7 -5 4 -14 8 -20 8 -5 0 -11 11 -12 24 -2 19 0 21 9 10 6 -8 18 -14 26 -14
9 0 14 -7 12 -17 -1 -9 7 -22 18 -28 18 -10 31 2 12 13 -4 2 0 2 8 -1 8 -2 20
-5 25 -6 6 -1 19 -8 30 -15 15 -9 16 -11 3 -7 -12 3 -18 0 -18 -10 0 -8 4 -13
9 -9 6 3 24 -15 40 -39 33 -47 38 -62 19 -50 -7 4 -8 3 -4 -5 4 -6 12 -9 17
-6 13 9 11 -8 -4 -29 -14 -19 -11 -70 4 -61 4 3 6 15 4 26 -3 12 3 33 11 48 9
15 12 18 9 6 -4 -11 -8 -36 -8 -55 -1 -27 3 -36 18 -38 16 -3 18 -1 8 9 -7 7
-13 20 -13 29 1 16 30 -33 35 -59 2 -9 4 -16 5 -16 1 0 3 -16 4 -35 2 -19 8
-46 15 -59 11 -19 11 -22 0 -16 -9 6 -10 3 -5 -10 5 -15 4 -16 -9 -5 -18 15
-20 35 -3 24 8 -5 9 -2 5 10 -4 10 -7 21 -8 24 0 4 -6 -9 -14 -28 l-13 -35
-10 25 c-6 14 -11 19 -11 12 -1 -7 -5 -11 -10 -8 -5 4 -11 3 -14 -1 -2 -5 -3
-3 -1 3 1 5 -4 21 -12 35 -7 13 -13 18 -14 12 0 -7 -9 -13 -21 -13 -11 0 -17
-4 -14 -10 3 -5 3 -10 -2 -10 -4 0 -9 -19 -10 -43 -10 -207 -10 -199 19 -255
15 -29 28 -61 28 -70 0 -9 6 -28 13 -42 14 -27 20 -74 20 -152 0 -27 2 -48 6
-48 4 0 15 15 25 34 13 25 17 45 12 70 -4 20 -10 36 -14 36 -4 0 -7 13 -8 30
-1 16 3 27 7 24 5 -3 9 -13 10 -22 0 -9 6 1 13 23 7 22 11 43 9 48 -2 4 1 7 6
7 6 0 11 11 11 24 0 33 14 40 47 24 24 -11 29 -21 36 -73 9 -70 10 -171 2
-235 -5 -42 -4 -46 22 -57 15 -7 35 -13 45 -13 10 0 28 -5 41 -12 48 -24 57
-28 77 -28 19 0 21 -5 17 -55 -4 -51 -8 -59 -51 -99 -25 -24 -46 -49 -46 -55
0 -6 -4 -11 -10 -11 -5 0 -10 8 -10 18 0 13 -7 18 -22 18 -14 -1 -24 6 -26 16
-4 21 32 25 44 6 5 -8 10 -2 15 16 10 36 -15 68 -48 60 -19 -5 -23 -2 -23 15
0 14 -6 21 -18 21 -20 0 -76 -39 -97 -66 -11 -15 -15 -16 -29 -5 -19 16 -50 6
-43 -13 3 -7 2 -31 -3 -52 -5 -22 -11 -55 -14 -75 -3 -20 -10 -48 -15 -63 -9
-23 -8 -26 13 -32 15 -3 34 1 50 11 26 17 26 17 26 -8 0 -17 -7 -28 -20 -32
-11 -3 -20 -13 -20 -20 0 -8 -5 -17 -11 -21 -9 -5 -10 1 -5 19 5 23 2 28 -20
33 -17 4 -29 2 -35 -7 -16 -26 -3 -277 21 -384 26 -118 62 -184 146 -268 l58
-57 218 0 218 0 0 376 c0 247 -3 373 -10 369 -14 -8 -13 8 1 22 19 19 4 37
-45 52 -25 7 -48 17 -51 21 -7 11 31 75 45 75 21 0 38 -34 21 -44 -18 -12 -6
-30 19 -28 20 1 20 11 20 879 l0 878 -1300 0 -1300 0 0 -1300z m1344 1030 c-5
-5 -16 -5 -24 1 -13 9 -12 10 3 5 11 -4 17 0 18 12 0 12 2 13 6 4 3 -8 1 -18
-3 -22z m168 0 c2 8 8 7 17 -4 12 -14 12 -16 -4 -10 -13 5 -16 3 -13 -7 3 -8
13 -13 22 -11 16 3 16 1 -1 -15 -23 -24 -49 -27 -30 -4 10 12 9 13 -2 6 -11
-6 -13 -3 -9 13 4 13 0 23 -9 26 -10 4 -13 2 -10 -8 4 -10 1 -13 -9 -9 -17 6
-17 10 -1 27 10 12 15 12 28 -1 12 -10 18 -11 21 -3z m-104 -40 c12 -19 11
-20 -8 -8 -11 7 -20 16 -20 20 0 15 15 8 28 -12z m63 -7 c6 -6 7 -13 2 -16 -4
-2 -16 4 -26 14 -16 15 -16 17 -3 15 9 -1 21 -7 27 -13z m214 7 c3 -5 1 -10
-4 -10 -6 0 -11 5 -11 10 0 6 2 10 4 10 3 0 8 -4 11 -10z m-334 -87 c13 -16
12 -17 -3 -4 -10 7 -18 15 -18 17 0 8 8 3 21 -13z m-570 -41 c-5 -10 -18 -25
-27 -33 -11 -9 -9 -2 6 19 26 35 36 42 21 14z m353 6 c-4 -5 2 -15 12 -22 16
-12 14 -13 -13 -12 -25 1 -29 4 -22 17 4 9 6 18 4 21 -3 3 2 5 10 5 8 0 12 -4
9 -9z m-331 -18 c-3 -12 -8 -19 -11 -16 -5 6 5 36 12 36 2 0 2 -9 -1 -20z
m237 10 c0 -5 -5 -10 -11 -10 -5 0 -7 5 -4 10 3 6 8 10 11 10 2 0 4 -4 4 -10z
m-160 -10 c0 -5 -2 -10 -4 -10 -3 0 -8 5 -11 10 -3 6 -1 10 4 10 6 0 11 -4 11
-10z m-123 -82 c-3 -7 -5 -2 -5 12 0 14 2 19 5 13 2 -7 2 -19 0 -25z m308 -8
c8 -13 -15 -13 -35 0 -12 8 -11 10 7 10 12 0 25 -4 28 -10z m1353 -332 c-6
-18 -28 -21 -28 -4 0 9 7 16 16 16 9 0 14 -5 12 -12z m172 -439 c0 -5 -4 -9
-10 -9 -5 0 -10 7 -10 16 0 8 5 12 10 9 6 -3 10 -10 10 -16z m-2033 -56 c-3
-10 -5 -4 -5 12 0 17 2 24 5 18 2 -7 2 -21 0 -30z m50 15 c-3 -8 -6 -5 -6 6
-1 11 2 17 5 13 3 -3 4 -12 1 -19z m149 -10 c5 -7 3 -8 -6 -3 -9 6 -11 -2 -5
-36 4 -24 11 -49 17 -56 6 -7 5 -14 -2 -18 -21 -13 -8 -23 35 -27 25 -2 45 0
45 5 0 4 10 5 23 2 12 -4 35 -1 50 4 19 7 27 7 27 0 0 -12 81 -2 90 10 13 18
39 18 55 1 12 -13 27 -18 50 -15 21 3 37 -1 45 -10 10 -12 10 -15 0 -15 -7 0
-10 -7 -6 -16 5 -13 1 -14 -23 -9 -44 9 -63 -6 -127 -102 -67 -101 -77 -113
-97 -113 -9 0 -14 -10 -14 -24 0 -14 -8 -32 -17 -41 -16 -17 -22 -56 -9 -69 8
-7 14 -36 8 -36 -3 0 -13 10 -24 21 -11 12 -26 19 -34 16 -10 -4 -12 2 -9 22
2 18 -3 32 -14 42 -16 12 -17 12 -11 -3 11 -31 -1 -19 -16 15 -31 69 -47 119
-42 128 4 5 1 9 -6 9 -8 0 -10 16 -7 51 3 29 2 45 -3 37 -6 -9 -9 -6 -10 12
-2 55 3 105 12 108 16 6 10 32 -7 32 -12 0 -15 6 -10 23 3 12 6 32 6 45 0 23
24 30 36 10z m-159 -30 c-3 -8 -6 -5 -6 6 -1 11 2 17 5 13 3 -3 4 -12 1 -19z
m36 -120 c10 -5 17 -20 16 -36 -1 -21 -2 -23 -6 -7 -3 11 -14 31 -24 44 -12
14 -19 38 -18 60 1 36 2 36 9 -8 4 -24 14 -47 23 -53z m-66 60 c-3 -8 -6 -5
-6 6 -1 11 2 17 5 13 3 -3 4 -12 1 -19z m43 -135 c0 -7 6 -12 13 -10 11 2 11
-4 0 -44 -3 -10 7 -28 24 -44 24 -23 25 -25 5 -15 -25 12 -34 30 -50 100 -6
25 -13 54 -16 65 -4 11 0 7 8 -10 8 -16 15 -36 16 -42z m110 -33 c0 -5 -5 -10
-11 -10 -5 0 -7 5 -4 10 3 6 8 10 11 10 2 0 4 -4 4 -10z m1398 -15 c-2 -14 -7
-26 -13 -26 -5 0 -11 12 -13 26 -2 18 1 25 13 25 12 0 15 -7 13 -25z m223 -68
c-7 -7 -12 -5 -17 7 -4 11 -1 21 7 27 17 11 26 -18 10 -34z m-1175 2 c19 -22
19 -22 -3 -10 -13 6 -23 16 -23 21 0 15 5 12 26 -11z m977 -22 c16 3 27 1 27
-6 0 -12 -38 -15 -64 -5 -9 3 -16 14 -16 23 1 15 2 15 13 -1 9 -11 22 -14 40
-11z m62 -85 c2 -18 -1 -35 -6 -38 -5 -3 -9 0 -9 5 0 6 -8 11 -19 11 -12 0
-20 9 -23 25 -6 30 0 37 30 33 20 -2 25 -9 27 -36z m279 -11 c3 -5 14 -7 25
-4 14 3 20 -2 24 -24 7 -35 -8 -53 -44 -53 -24 0 -29 5 -35 34 -6 35 0 56 16
56 5 0 11 -4 14 -9z m-1284 -130 c0 -4 -3 -11 -7 -14 -8 -9 -34 13 -28 24 6 9
35 1 35 -10z m-440 -6 c25 -31 -9 -149 -52 -180 -20 -13 -23 -12 -45 11 -24
26 -23 44 2 44 9 0 16 15 20 38 14 84 46 122 75 87z m77 -37 c-3 -7 -5 -2 -5
12 0 14 2 19 5 13 2 -7 2 -19 0 -25z m100 -20 c2 -17 0 -19 -7 -8 -5 8 -6 18
-4 22 8 12 10 10 11 -14z m-74 -8 c3 -11 1 -18 -4 -14 -5 3 -9 12 -9 20 0 20
7 17 13 -6z m97 -35 c-7 -9 -15 -13 -17 -11 -7 7 7 26 19 26 6 0 6 -6 -2 -15z
m-60 1 c0 -3 -4 -8 -10 -11 -5 -3 -10 -1 -10 4 0 6 5 11 10 11 6 0 10 -2 10
-4z m350 -77 c0 -6 -6 -9 -14 -6 -8 3 -17 1 -19 -6 -2 -7 -8 -8 -13 -4 -5 4
-2 12 6 17 20 13 40 12 40 -1z m1283 -27 c10 -3 9 -32 -2 -32 -5 0 -14 7 -21
15 -16 20 -30 3 -30 -36 0 -14 -7 -34 -15 -45 -13 -17 -14 -14 -15 38 0 64 14
74 83 60z m-1436 -78 c-3 -3 -12 -4 -19 -1 -8 3 -5 6 6 6 11 1 17 -2 13 -5z
m1403 -69 c0 -8 -4 -15 -10 -15 -5 0 -10 7 -10 15 0 8 5 15 10 15 6 0 10 -7
10 -15z m-1990 -167 c0 -4 -6 -8 -14 -8 -14 0 -28 35 -18 45 7 6 32 -23 32
-37z m1918 -7 c3 -8 -1 -12 -9 -9 -7 2 -15 10 -17 17 -3 8 1 12 9 9 7 -2 15
-10 17 -17z m-2068 -81 c0 -5 -7 -10 -16 -10 -8 0 -12 5 -9 10 3 6 10 10 16
10 5 0 9 -4 9 -10z"/>
<path d="M732 1060 c0 -14 2 -19 5 -12 2 6 2 18 0 25 -3 6 -5 1 -5 -13z"/>
<path d="M801 804 c0 -11 3 -14 6 -6 3 7 2 16 -1 19 -3 4 -6 -2 -5 -13z"/>
<path d="M1590 2314 c0 -12 38 -74 46 -74 3 0 -5 17 -17 38 -28 46 -29 47 -29
36z"/>
<path d="M1630 2298 c0 -9 5 -20 10 -23 13 -8 13 5 0 25 -8 13 -10 13 -10 -2z"/>
<path d="M1351 2251 c-10 -6 -9 -10 3 -14 8 -3 18 -2 21 3 8 13 -9 20 -24 11z"/>
<path d="M1400 2176 c0 -9 5 -16 10 -16 6 0 10 4 10 9 0 6 -4 13 -10 16 -5 3
-10 -1 -10 -9z"/>
<path d="M1876 2161 c-3 -5 1 -14 8 -20 12 -10 13 -8 9 8 -6 23 -9 25 -17 12z"/>
<path d="M1400 2141 c0 -5 5 -13 10 -16 6 -3 10 -2 10 4 0 5 -4 13 -10 16 -5
3 -10 2 -10 -4z"/>
<path d="M1300 2136 c0 -2 8 -10 18 -17 15 -13 16 -12 3 4 -13 16 -21 21 -21
13z"/>
<path d="M1910 2002 c0 -11 20 -38 20 -27 0 6 4 3 10 -5 5 -8 11 -12 14 -9 3
3 -5 15 -19 27 -14 12 -25 19 -25 14z"/>
<path d="M771 1983 c7 -12 15 -20 18 -17 3 2 -3 12 -13 22 -17 16 -18 16 -5
-5z"/>
<path d="M750 1951 c-12 -24 -13 -34 -1 -27 9 6 22 46 15 46 -2 0 -8 -9 -14
-19z"/>
<path d="M1985 1922 c-18 -15 -19 -21 -9 -40 6 -13 15 -19 18 -14 3 6 2 13 -4
17 -18 11 -11 27 10 22 24 -6 35 7 17 21 -8 7 -18 5 -32 -6z"/>
<path d="M1940 1881 c0 -7 -4 -9 -10 -6 -5 3 -10 1 -10 -4 0 -6 4 -11 9 -11
13 0 25 20 17 27 -3 4 -6 1 -6 -6z"/>
<path d="M1991 1834 c0 -11 3 -14 6 -6 3 7 2 16 -1 19 -3 4 -6 -2 -5 -13z"/>
<path d="M2085 1436 c-14 -10 -17 -17 -9 -27 6 -8 14 -26 18 -42 10 -40 31
-15 33 39 1 47 -9 54 -42 30z"/>
<path d="M1443 1409 c-29 -14 -51 -28 -50 -30 1 -3 -2 -1 -7 3 -6 5 -19 8 -30
8 -20 0 -20 -1 2 -16 12 -8 22 -22 22 -30 0 -8 7 -17 16 -21 8 -3 13 -11 10
-19 -6 -16 19 -38 34 -29 6 4 9 1 8 -6 -2 -6 8 -13 22 -14 14 -1 51 -8 83 -15
36 -8 62 -9 67 -4 6 6 -1 11 -18 12 -48 4 -67 9 -64 15 1 4 2 14 2 23 0 8 5
12 10 9 6 -3 10 -2 10 3 0 5 6 9 13 9 6 1 39 7 72 13 33 7 84 9 113 6 28 -3
52 -4 52 -1 0 4 -12 21 -27 40 -20 25 -33 33 -48 29 -11 -3 -40 2 -64 11 -24
8 -54 15 -68 15 -13 0 -22 4 -18 9 12 21 -91 6 -142 -20z m125 -77 c2 -7 -2
-10 -12 -6 -9 3 -16 11 -16 16 0 13 23 5 28 -10z"/>
<path d="M1486 1036 c10 -19 22 -32 27 -29 6 3 7 1 3 -6 -4 -6 1 -22 11 -35
10 -13 25 -34 33 -46 35 -51 132 -130 178 -144 12 -4 22 -12 22 -17 0 -5 5 -9
11 -9 7 0 8 11 4 31 -5 22 -4 29 4 25 25 -16 8 16 -31 60 -52 57 -203 170
-271 202 -4 2 0 -12 9 -32z"/>
<path d="M1862 820 c0 -14 2 -19 5 -12 2 6 2 18 0 25 -3 6 -5 1 -5 -13z"/>
<path d="M1650 779 c0 -6 4 -18 9 -28 9 -15 6 -17 -20 -13 -16 2 -49 1 -74 -2
-43 -7 -45 -9 -39 -34 4 -15 8 -28 9 -29 1 -2 21 7 45 18 35 17 47 19 67 10
14 -6 27 -20 30 -31 7 -25 7 -25 39 5 29 27 28 52 -5 95 -17 21 -21 22 -37 10
-11 -9 -15 -10 -10 -2 4 6 2 12 -3 12 -6 0 -11 -5 -11 -11z"/>
<path d="M1484 715 c-10 -8 -14 -14 -9 -15 15 0 40 18 34 24 -3 3 -14 -1 -25
-9z"/>
<path d="M1390 700 c0 -5 9 -10 21 -10 11 0 17 5 14 10 -3 6 -13 10 -21 10 -8
0 -14 -4 -14 -10z"/>
<path d="M1710 651 c0 -6 4 -13 10 -16 6 -3 7 1 4 9 -7 18 -14 21 -14 7z"/>
<path d="M1880 585 c-8 -45 -8 -47 2 -37 5 5 8 18 5 28 -3 11 -6 15 -7 9z"/>
<path d="M1843 510 c-9 -13 -9 -21 -2 -26 13 -7 15 -5 23 24 9 27 -5 29 -21 2z"/>
<path d="M1305 509 c-4 -6 -5 -12 -2 -15 2 -3 7 2 10 11 7 17 1 20 -8 4z"/>
<path d="M1274 475 c-8 -19 11 -52 20 -36 4 6 2 11 -3 11 -6 0 -11 5 -11 11 0
6 7 9 15 5 8 -3 15 -1 15 3 0 16 -31 21 -36 6z"/>
<path d="M1737 453 c-11 -11 -8 -20 7 -20 8 0 12 6 9 14 -6 15 -7 15 -16 6z"/>
</g>
</svg>
